<svg width="34" height="35" viewBox="0 0 34 35" fill="none" xmlns="http://www.w3.org/2000/svg">
<path d="M21.6291 18.3181C20.6832 18.0552 18.2776 20.3804 18.2776 20.3804L14.1987 23.4985C14.1987 23.4985 12.5359 25.168 8.24912 24.8979C3.96233 24.6279 0.95268 20.9479 1.00056 21.3134C1.33831 23.8913 3.82724 30.7069 11.3928 33.1228C20.8497 36.1426 26.9811 30.4466 27.9423 29.8328C28.9036 29.219 32.437 24.4315 32.1771 23.7686C31.9693 23.2382 31.1812 23.3512 31.034 23.4494L29.5012 24.8488C28.0203 26.1255 21.0639 31.2568 19.4987 27.304C18.2932 24.2596 21.6291 21.7553 22.2266 20.1104C22.4778 19.6848 22.5124 18.5636 21.6291 18.3181Z" fill="#18314F" stroke="black" stroke-width="0.173934"/>
<path d="M20.0503 25.0623C20.0503 24.9747 20.0975 24.894 20.1753 24.8484L22.5643 23.4492L24.5205 21.9485C24.6608 21.8409 24.8677 21.8605 24.9869 21.9928V21.9928C25.1041 22.123 25.0951 22.3153 24.9643 22.4292C24.5602 22.7812 23.7084 23.5086 23.058 23.9647C22.2734 24.515 21.03 25.1197 20.6066 25.3201C20.5128 25.3645 20.4037 25.3685 20.3044 25.3328L20.2276 25.3052C20.1212 25.2669 20.0503 25.1698 20.0503 25.0623V25.0623Z" fill="#18314F"/>
<path d="M20.2863 26.5386C20.1843 26.3699 20.256 26.1567 20.4409 26.0791L21.8514 25.4867C21.9281 25.4544 22.0022 25.4169 22.0731 25.3745L23.8113 24.3334L25.3961 23.0567L26.486 21.9296C26.6427 21.7676 26.9119 21.764 27.0789 21.9217V21.9217C27.2298 22.0644 27.2448 22.2894 27.109 22.4408C26.6199 22.9861 25.4558 24.2275 24.4466 24.8708C23.7352 25.3242 23.3176 25.6592 22.5382 26.1012C21.9854 26.4146 21.0737 26.6153 20.6448 26.6973C20.5028 26.7244 20.3592 26.6591 20.2863 26.5386V26.5386Z" fill="#18314F"/>
<path d="M21.2359 27.2803C21.2382 27.2799 21.2404 27.2795 21.2427 27.279C21.3071 27.2662 22.2966 27.0672 22.9021 26.8377C23.7858 26.5028 24.915 25.6998 25.2632 25.4442C25.3354 25.3913 25.4044 25.3359 25.4727 25.2786L27.2409 23.7933L28.6888 22.4475C28.779 22.3636 28.8876 22.2997 29.0071 22.2602L29.111 22.2258C29.2611 22.1762 29.4268 22.185 29.5721 22.2504L29.5912 22.259C29.7767 22.3425 29.9029 22.5128 29.9223 22.706V22.706C29.9356 22.8371 29.8983 22.9676 29.8152 23.0716C29.3697 23.6291 27.8335 25.4815 26.4095 26.3712C25.4978 26.9409 24.964 27.281 23.8634 27.5988C22.3725 28.0293 21.7233 28.0543 21.5212 28.0467C21.4714 28.0449 21.423 28.035 21.3745 28.0236L21.077 27.9533C21.0468 27.9462 21.0177 27.9353 20.9905 27.9209V27.9209C20.7043 27.7698 20.7671 27.3647 21.0855 27.3073L21.2359 27.2803Z" fill="#18314F"/>
<path fill-rule="evenodd" clip-rule="evenodd" d="M3.20888 10.1177C5.23537 7.44153 10.8472 2.82581 19.1869 3.46419C29.0751 4.22111 33.8399 12.4992 32.8786 20.233C32.8097 20.7877 32.4346 20.3847 31.7275 19.6249C30.0054 17.7747 26.3141 13.8085 20.2781 16.4029C18.0521 17.3597 16.4674 18.3392 15.1412 19.1589C13.6326 20.0912 12.4584 20.817 11.055 21.0677C5.78096 22.01 3.02702 19.2755 3.02702 19.2755C3.02702 19.2755 2.17796 18.7138 1.81152 16.9937C2.73914 16.325 6.70354 14.4073 15.2897 12.0585C23.9776 9.68191 30.1679 14.3418 32.177 16.9689C31.9951 15.2993 30.031 11.3023 23.6294 8.67038C17.4728 6.13917 4.75135 8.52108 2.60793 11.0221C2.79707 10.6882 3.00146 10.3916 3.20888 10.1177Z" fill="#18314F"/>
<path d="M19.1869 3.46419L19.1935 3.37748L19.1869 3.46419ZM3.20888 10.1177L3.27822 10.1702L3.27822 10.1702L3.20888 10.1177ZM32.8786 20.233L32.9649 20.2437L32.9649 20.2437L32.8786 20.233ZM31.7275 19.6249L31.7911 19.5657L31.7911 19.5657L31.7275 19.6249ZM20.2781 16.4029L20.2437 16.323L20.2437 16.323L20.2781 16.4029ZM15.1412 19.1589L15.0955 19.0849L15.0955 19.0849L15.1412 19.1589ZM11.055 21.0677L11.0703 21.1534L11.0703 21.1534L11.055 21.0677ZM3.02702 19.2755L3.0883 19.2137L3.08219 19.2077L3.07501 19.2029L3.02702 19.2755ZM1.81152 16.9937L1.76067 16.9231L1.71464 16.9563L1.72647 17.0118L1.81152 16.9937ZM15.2897 12.0585L15.2667 11.9746L15.2667 11.9746L15.2897 12.0585ZM32.177 16.9689L32.1079 17.0217L32.2972 17.2692L32.2635 16.9594L32.177 16.9689ZM23.6294 8.67038L23.6625 8.58994L23.6625 8.58994L23.6294 8.67038ZM2.60793 11.0221L2.53226 10.9792L2.67396 11.0786L2.60793 11.0221ZM19.1935 3.37748C10.8171 2.73629 5.17903 7.37187 3.13955 10.0652L3.27822 10.1702C5.29171 7.51119 10.8772 2.91533 19.1803 3.55091L19.1935 3.37748ZM32.9649 20.2437C33.9312 12.4693 29.1395 4.13881 19.1935 3.37748L19.1803 3.55091C29.0108 4.3034 33.7485 12.5292 32.7923 20.2223L32.9649 20.2437ZM31.6638 19.6842C31.8403 19.8738 31.9974 20.0426 32.1344 20.1799C32.2705 20.3163 32.3911 20.426 32.4943 20.4944C32.546 20.5286 32.5977 20.5555 32.6485 20.5688C32.7004 20.5824 32.7563 20.5828 32.8084 20.5564C32.8598 20.5304 32.8943 20.4849 32.9177 20.4329C32.9408 20.3814 32.9557 20.3175 32.9649 20.2437L32.7923 20.2223C32.7842 20.2872 32.7723 20.3321 32.759 20.3616C32.7459 20.3909 32.7343 20.399 32.7298 20.4013C32.726 20.4032 32.7162 20.4067 32.6925 20.4006C32.6678 20.3941 32.6341 20.3784 32.5904 20.3494C32.5028 20.2914 32.3927 20.1925 32.2575 20.057C32.1231 19.9224 31.9682 19.756 31.7911 19.5657L31.6638 19.6842ZM20.3124 16.4828C23.3062 15.196 25.7119 15.5373 27.5832 16.4257C29.459 17.3163 30.8023 18.7585 31.6638 19.6842L31.7911 19.5657C30.9306 18.6411 29.5672 17.1751 27.6578 16.2686C25.7439 15.36 23.2859 15.0154 20.2437 16.323L20.3124 16.4828ZM15.1869 19.2328C16.5127 18.4134 18.0928 17.4369 20.3124 16.4828L20.2437 16.323C18.0114 17.2826 16.4221 18.2649 15.0955 19.0849L15.1869 19.2328ZM11.0703 21.1534C12.493 20.8992 13.6816 20.1632 15.1869 19.2328L15.0955 19.0849C13.5837 20.0192 12.4238 20.7348 11.0397 20.9821L11.0703 21.1534ZM3.02702 19.2755C2.96575 19.3372 2.96579 19.3372 2.96585 19.3373C2.96588 19.3373 2.96595 19.3374 2.96601 19.3374C2.96614 19.3376 2.96631 19.3377 2.96653 19.3379C2.96695 19.3384 2.96755 19.3389 2.96832 19.3397C2.96985 19.3412 2.97205 19.3433 2.97493 19.3461C2.98068 19.3516 2.98913 19.3596 3.00027 19.3699C3.02254 19.3904 3.05555 19.4201 3.09926 19.4573C3.18667 19.5318 3.31687 19.6365 3.48941 19.7589C3.83447 20.0038 4.34907 20.3194 5.02958 20.6051C6.3913 21.1769 8.41526 21.6277 11.0703 21.1534L11.0397 20.9821C8.42068 21.45 6.43066 21.0047 5.09691 20.4448C4.42968 20.1646 3.92617 19.8556 3.59006 19.6171C3.42201 19.4979 3.29586 19.3963 3.21206 19.3249C3.17016 19.2892 3.13886 19.2611 3.11821 19.242C3.10789 19.2325 3.10023 19.2253 3.09524 19.2205C3.09275 19.2181 3.09092 19.2163 3.08977 19.2152C3.08919 19.2146 3.08878 19.2142 3.08853 19.214C3.08841 19.2139 3.08833 19.2138 3.08829 19.2137C3.08827 19.2137 3.08828 19.2137 3.08827 19.2137C3.08828 19.2137 3.0883 19.2137 3.02702 19.2755ZM1.72647 17.0118C1.91221 17.8837 2.22109 18.4654 2.48631 18.8307C2.61883 19.0132 2.74018 19.1413 2.82934 19.2244C2.87391 19.266 2.91042 19.2963 2.93625 19.3165C2.94916 19.3266 2.9594 19.3341 2.96665 19.3394C2.97027 19.342 2.97314 19.344 2.97522 19.3454C2.97626 19.3461 2.9771 19.3467 2.97774 19.3471C2.97806 19.3473 2.97833 19.3475 2.97855 19.3477C2.97865 19.3477 2.97875 19.3478 2.97883 19.3479C2.97888 19.3479 2.97893 19.3479 2.97895 19.3479C2.979 19.348 2.97904 19.348 3.02702 19.2755C3.07501 19.2029 3.07505 19.203 3.07508 19.203C3.07509 19.203 3.07512 19.203 3.07514 19.203C3.07517 19.203 3.07519 19.203 3.07519 19.2031C3.07521 19.2031 3.07517 19.203 3.07508 19.203C3.0749 19.2029 3.07452 19.2026 3.07394 19.2022C3.07278 19.2014 3.07084 19.2 3.06815 19.1981C3.06278 19.1943 3.05442 19.1881 3.0434 19.1795C3.02136 19.1622 2.98868 19.1352 2.94793 19.0972C2.86644 19.0212 2.75262 18.9014 2.62706 18.7285C2.37614 18.3829 2.07727 17.8237 1.89658 16.9756L1.72647 17.0118ZM1.86238 17.0642C2.31676 16.7367 3.53106 16.0933 5.71046 15.2371C7.88737 14.3818 11.022 13.3161 15.3126 12.1424L15.2667 11.9746C10.9712 13.1497 7.83058 14.2172 5.64685 15.0752C3.46561 15.9322 2.2339 16.582 1.76067 16.9231L1.86238 17.0642ZM15.3126 12.1424C23.9577 9.7775 30.1142 14.4149 32.1079 17.0217L32.2461 16.916C30.2215 14.2688 23.9974 9.58631 15.2667 11.9746L15.3126 12.1424ZM32.2635 16.9594C32.0773 15.2503 30.0853 11.2306 23.6625 8.58994L23.5963 8.75081C29.9767 11.374 31.913 15.3484 32.0906 16.9783L32.2635 16.9594ZM23.6625 8.58994C20.5623 7.31534 15.8238 7.28072 11.6017 7.87302C9.48851 8.16946 7.49959 8.62364 5.90327 9.16114C5.10515 9.42987 4.4037 9.71992 3.83334 10.0223C3.2642 10.324 2.82007 10.6409 2.54189 10.9655L2.67396 11.0786C2.93164 10.778 3.35393 10.4733 3.91481 10.176C4.47447 9.87927 5.16664 9.59269 5.95877 9.32598C7.54297 8.79256 9.5211 8.34053 11.6258 8.04527C15.8394 7.45417 20.54 7.49421 23.5963 8.75081L23.6625 8.58994ZM3.13955 10.0652C2.93047 10.3413 2.72377 10.6411 2.53226 10.9792L2.6836 11.0649C2.87036 10.7352 3.07244 10.4419 3.27822 10.1702L3.13955 10.0652Z" fill="black"/>
<path d="M12.9959 10.6561L14.1761 10.5411C14.4272 10.5166 14.6053 10.2857 14.5655 10.0365C14.5287 9.80644 14.3186 9.64479 14.087 9.66832L12.9073 9.78817C12.6655 9.81274 12.491 10.0303 12.5193 10.2718C12.5471 10.5081 12.7592 10.6791 12.9959 10.6561Z" fill="black"/>
<path d="M17.6438 10.2528L18.8296 10.2491C19.0822 10.2483 19.2838 10.0353 19.2703 9.78355C19.2579 9.55117 19.0657 9.37058 18.8325 9.37228L17.6466 9.38093C17.4033 9.3827 17.2067 9.58278 17.2096 9.82572C17.2124 10.0635 17.4056 10.2536 17.6438 10.2528Z" fill="black"/>
<path d="M22.3032 10.6225L23.4453 10.89C23.6926 10.9479 23.9445 10.7889 23.9964 10.542C24.0444 10.3133 23.9022 10.0928 23.6729 10.04L22.5296 9.77717C22.291 9.72231 22.0472 9.8702 21.9874 10.1062C21.9286 10.3378 22.0693 10.5676 22.3032 10.6225Z" fill="black"/>
<path d="M26.6152 12.0322L27.6285 12.5589C27.8562 12.6773 28.1453 12.5875 28.2622 12.3622C28.3711 12.1521 28.2895 11.9008 28.0767 11.7914L27.061 11.2688C26.841 11.1556 26.5626 11.2368 26.4409 11.4498C26.3209 11.6599 26.3985 11.9196 26.6152 12.0322Z" fill="black"/>
<path d="M4.30959 13.261L5.41695 12.8774C5.65558 12.7947 5.76948 12.5296 5.66606 12.2975C5.5704 12.0828 5.32271 11.9752 5.10229 12.0526L3.99667 12.4407C3.76709 12.5213 3.6533 12.7728 3.74358 13.0001C3.83212 13.223 4.08409 13.3391 4.30959 13.261Z" fill="black"/>
<path d="M8.62661 11.8358L9.75633 11.5077C9.9987 11.4373 10.1269 11.1783 10.0367 10.9412C9.95325 10.7221 9.71265 10.6022 9.48892 10.6682L8.36067 11.0009C8.12746 11.0697 8.00013 11.3151 8.07751 11.5467C8.15335 11.7736 8.39775 11.9023 8.62661 11.8358Z" fill="black"/>
<g filter="url(#filter0_d_212_135)">
<path d="M8.86233 12.8906L9.25204 12.0312L9.71969 12.3504L10.9927 12.2522C10.9927 12.2522 11.928 12.866 12.2398 13.0624L11.9021 13.7499L12.4996 14.3637L11.4084 15.1493L10.1873 14.8547L9.56381 15.7386L8.81037 15.2721L7.74517 15.1493L6.73193 14.6828L7.32948 14.2655L7.06968 13.1852H7.45939L8.08292 12.5714L8.86233 12.8906Z" fill="#18314F"/>
<path d="M9.35009 11.8876L9.17913 11.7709L9.09364 11.9594L8.77315 12.6661L8.14883 12.4104L8.04266 12.367L7.9609 12.4474L7.38814 13.0112H7.06968H6.84896L6.90057 13.2259L7.13263 14.1908L6.63233 14.5402L6.38363 14.714L6.6592 14.8408L7.67243 15.3073L7.69767 15.3189L7.72526 15.3221L8.75185 15.4404L9.47225 15.8864L9.61151 15.9727L9.70593 15.8388L10.2614 15.0515L11.3676 15.3184L11.4452 15.3371L11.5101 15.2905L12.6012 14.5048L12.765 14.3869L12.6242 14.2423L12.1123 13.7165L12.3959 13.1391L12.4649 12.9987L12.3325 12.9153C12.178 12.8179 11.8675 12.6162 11.5944 12.438C11.4581 12.3491 11.3315 12.2663 11.239 12.2057L11.1289 12.1335L11.0987 12.1137L11.0908 12.1086L11.0888 12.1072L11.0883 12.1069L11.0882 12.1068L11.0882 12.1068L10.9927 12.2522L11.0882 12.1068L11.0385 12.0742L10.9794 12.0788L9.76725 12.1723L9.35009 11.8876Z" stroke="#555555" stroke-width="0.347867"/>
</g>
<g filter="url(#filter1_d_212_135)">
<path d="M16.8054 7.07604L17.1529 6.31348L17.57 6.59672L18.7054 6.50957C18.7054 6.50957 19.5396 7.05426 19.8177 7.22856L19.5165 7.83861L20.0494 8.3833L19.0762 9.0805L17.9871 8.81905L17.431 9.60341L16.759 9.18944L15.809 9.0805L14.9053 8.66654L15.4382 8.29615L15.2065 7.33749H15.5541L16.1102 6.7928L16.8054 7.07604Z" fill="#18314F"/>
<path d="M17.2507 6.16958L17.0801 6.0538L16.9947 6.24134L16.7163 6.85196L16.1758 6.63173L16.0701 6.58864L15.9885 6.66854L15.4831 7.16356H15.2065H14.9855L15.0374 7.37836L15.2412 8.22128L14.806 8.52371L14.5557 8.6977L14.8328 8.82467L15.7365 9.23864L15.7617 9.25015L15.7892 9.25331L16.7007 9.35783L17.3398 9.7515L17.4786 9.83701L17.5729 9.70401L18.0609 9.01565L19.0356 9.24963L19.1129 9.26819L19.1775 9.2219L20.1507 8.52469L20.3156 8.4066L20.1737 8.26166L19.727 7.80508L19.9736 7.30557L20.0432 7.16465L19.9101 7.08118C19.7725 6.99492 19.4956 6.81599 19.252 6.65781C19.1305 6.5789 19.0176 6.50542 18.9351 6.45167L18.8369 6.38763L18.8099 6.37007L18.8029 6.36549L18.8011 6.36432L18.8007 6.36403L18.8006 6.36395L18.8006 6.36393L18.7054 6.50957L18.8005 6.36393L18.7511 6.33162L18.6921 6.33614L17.6174 6.41863L17.2507 6.16958Z" stroke="#555555" stroke-width="0.347867"/>
</g>
<g filter="url(#filter2_d_212_135)">
<path d="M25.3572 12.4452L25.6381 11.8306L25.9751 12.0588L26.8926 11.9886C26.8926 11.9886 27.5667 12.4276 27.7914 12.5681L27.548 13.0598L27.9787 13.4988L27.1922 14.0607L26.3122 13.85L25.8628 14.4822L25.3198 14.1485L24.552 14.0607L23.8218 13.7271L24.2524 13.4285L24.0652 12.6559H24.3461L24.7955 12.2169L25.3572 12.4452Z" fill="#18314F"/>
<path d="M25.7356 11.6866L25.5653 11.5712L25.4799 11.7583L25.2683 12.2213L24.8609 12.0558L24.7554 12.0129L24.6739 12.0925L24.2752 12.482H24.0652H23.8441L23.8962 12.6969L24.0553 13.3536L23.7227 13.5841L23.4715 13.7582L23.7495 13.8853L24.4798 14.2189L24.5049 14.2304L24.5323 14.2335L25.2616 14.3169L25.7717 14.6303L25.9103 14.7155L26.0045 14.5829L26.3859 14.0465L27.1517 14.2299L27.2288 14.2483L27.2933 14.2022L28.0798 13.6403L28.2452 13.5221L28.1028 13.377L27.7587 13.0262L27.9473 12.6453L28.0172 12.5041L27.8836 12.4206C27.7727 12.3513 27.5492 12.2072 27.3523 12.0797C27.2541 12.0161 27.1629 11.9569 27.0962 11.9136L27.0169 11.862L26.9951 11.8478L26.9895 11.8441L26.988 11.8432L26.9877 11.8429L26.9876 11.8429L26.9876 11.8429L26.8926 11.9886L26.9875 11.8429L26.9381 11.8107L26.8793 11.8152L26.0224 11.8808L25.7356 11.6866Z" stroke="#555555" stroke-width="0.347867"/>
</g>
<g filter="url(#filter3_di_212_135)">
<path d="M17.8774 4.6206C17.6864 4.6206 17.5032 4.54794 17.3681 4.41861C17.233 4.28928 17.1571 4.11387 17.1571 3.93097C17.1571 3.74807 17.233 3.57266 17.3681 3.44332C17.5032 3.31399 17.6864 3.24134 17.8774 3.24134C18.0684 3.24134 18.2516 3.31399 18.3867 3.44332C18.5218 3.57266 18.5977 3.74807 18.5977 3.93097C18.5977 4.02153 18.5791 4.11121 18.5429 4.19488C18.5067 4.27855 18.4536 4.35457 18.3867 4.41861C18.3198 4.48265 18.2404 4.53345 18.153 4.5681C18.0656 4.60276 17.972 4.6206 17.8774 4.6206ZM17.8774 2C17.3425 2 16.8295 2.20344 16.4513 2.56557C16.0731 2.92769 15.8606 3.41884 15.8606 3.93097C15.8606 5.37919 17.8774 7.51705 17.8774 7.51705C17.8774 7.51705 19.8942 5.37919 19.8942 3.93097C19.8942 3.41884 19.6817 2.92769 19.3035 2.56557C18.9253 2.20344 18.4123 2 17.8774 2Z" fill="#6AB5EC"/>
</g>
<defs>
<filter id="filter0_d_212_135" x="5.33967" y="11.5107" width="8.38634" height="6.08727" filterUnits="userSpaceOnUse" color-interpolation-filters="sRGB">
<feFlood flood-opacity="0" result="BackgroundImageFix"/>
<feColorMatrix in="SourceAlpha" type="matrix" values="0 0 0 0 0 0 0 0 0 0 0 0 0 0 0 0 0 0 127 0" result="hardAlpha"/>
<feOffset dy="0.695734"/>
<feGaussianBlur stdDeviation="0.347867"/>
<feComposite in2="hardAlpha" operator="out"/>
<feColorMatrix type="matrix" values="0 0 0 0 0 0 0 0 0 0 0 0 0 0 0 0 0 0 0.25 0"/>
<feBlend mode="normal" in2="BackgroundImageFix" result="effect1_dropShadow_212_135"/>
<feBlend mode="normal" in="SourceGraphic" in2="effect1_dropShadow_212_135" result="shape"/>
</filter>
<filter id="filter1_d_212_135" x="13.5103" y="5.79395" width="7.7672" height="5.66832" filterUnits="userSpaceOnUse" color-interpolation-filters="sRGB">
<feFlood flood-opacity="0" result="BackgroundImageFix"/>
<feColorMatrix in="SourceAlpha" type="matrix" values="0 0 0 0 0 0 0 0 0 0 0 0 0 0 0 0 0 0 127 0" result="hardAlpha"/>
<feOffset dy="0.695734"/>
<feGaussianBlur stdDeviation="0.347867"/>
<feComposite in2="hardAlpha" operator="out"/>
<feColorMatrix type="matrix" values="0 0 0 0 0 0 0 0 0 0 0 0 0 0 0 0 0 0 0.25 0"/>
<feBlend mode="normal" in2="BackgroundImageFix" result="effect1_dropShadow_212_135"/>
<feBlend mode="normal" in="SourceGraphic" in2="effect1_dropShadow_212_135" result="shape"/>
</filter>
<filter id="filter2_d_212_135" x="22.4254" y="11.312" width="6.78209" height="5.02819" filterUnits="userSpaceOnUse" color-interpolation-filters="sRGB">
<feFlood flood-opacity="0" result="BackgroundImageFix"/>
<feColorMatrix in="SourceAlpha" type="matrix" values="0 0 0 0 0 0 0 0 0 0 0 0 0 0 0 0 0 0 127 0" result="hardAlpha"/>
<feOffset dy="0.695734"/>
<feGaussianBlur stdDeviation="0.347867"/>
<feComposite in2="hardAlpha" operator="out"/>
<feColorMatrix type="matrix" values="0 0 0 0 0 0 0 0 0 0 0 0 0 0 0 0 0 0 0.25 0"/>
<feBlend mode="normal" in2="BackgroundImageFix" result="effect1_dropShadow_212_135"/>
<feBlend mode="normal" in="SourceGraphic" in2="effect1_dropShadow_212_135" result="shape"/>
</filter>
<filter id="filter3_di_212_135" x="13.9765" y="0.115883" width="7.80193" height="9.28532" filterUnits="userSpaceOnUse" color-interpolation-filters="sRGB">
<feFlood flood-opacity="0" result="BackgroundImageFix"/>
<feColorMatrix in="SourceAlpha" type="matrix" values="0 0 0 0 0 0 0 0 0 0 0 0 0 0 0 0 0 0 127 0" result="hardAlpha"/>
<feOffset/>
<feGaussianBlur stdDeviation="0.942059"/>
<feComposite in2="hardAlpha" operator="out"/>
<feColorMatrix type="matrix" values="0 0 0 0 1 0 0 0 0 1 0 0 0 0 1 0 0 0 0.12 0"/>
<feBlend mode="normal" in2="BackgroundImageFix" result="effect1_dropShadow_212_135"/>
<feBlend mode="normal" in="SourceGraphic" in2="effect1_dropShadow_212_135" result="shape"/>
<feColorMatrix in="SourceAlpha" type="matrix" values="0 0 0 0 0 0 0 0 0 0 0 0 0 0 0 0 0 0 127 0" result="hardAlpha"/>
<feOffset dy="0.942059"/>
<feGaussianBlur stdDeviation="0.706544"/>
<feComposite in2="hardAlpha" operator="arithmetic" k2="-1" k3="1"/>
<feColorMatrix type="matrix" values="0 0 0 0 0.0941176 0 0 0 0 0.192157 0 0 0 0 0.309804 0 0 0 0.38 0"/>
<feBlend mode="normal" in2="shape" result="effect2_innerShadow_212_135"/>
</filter>
</defs>
</svg>
